<?xml version="1.0" ?><!DOCTYPE svg  PUBLIC '-//W3C//DTD SVG 1.1//EN'  'http://www.w3.org/Graphics/SVG/1.1/DTD/svg11.dtd'><svg height="512px" style="enable-background:new 0 0 512 512;" version="1.1" viewBox="0 0 512 512" width="512px" xml:space="preserve" xmlns="http://www.w3.org/2000/svg" xmlns:xlink="http://www.w3.org/1999/xlink"><g id="_x34_07_x2C_message_x2C_email_x2C_mail_x2C_inbox"><g><path d="M96.453,218.654l-68.87-51.832c-1.045,1.844-1.648,3.967-1.648,6.232V396.68c0,2.586,0.779,4.99,2.109,7.002    l137.33-128.857L96.453,218.654z"/><path d="M228,315.543l126.692-103.248l67.429-50.164c-1.387-0.996-2.729-1.613-4.156-1.754c-0.212-0.012-0.421-0.033-0.635-0.033    H38.67c-1.591,0-3.055,0.414-4.596,1.352l67.373,50.709L228,315.543z"/><path d="M228,325.863l-56.37-45.941L34.418,408.67c1.333,0.475,2.76,0.746,4.252,0.746h378.66c1.493,0,2.92-0.271,4.252-0.746    L284.371,279.922L228,325.863z"/><path d="M473.328,101.928H94.67c-7.022,0-12.736,5.713-12.736,12.736v37.68H417.33c0.458,0,0.903,0.027,1.342,0.068    c10.808,0.697,19.394,9.674,19.394,20.643v177.943h35.263c7.023,0,12.737-5.701,12.737-12.709V114.664    C486.065,107.641,480.352,101.928,473.328,101.928z"/><path d="M359.539,218.66l-68.912,56.162l137.33,128.857c1.329-2.01,2.108-4.414,2.108-7V173.055c0-2.094-0.519-4.064-1.42-5.807    L359.539,218.66z"/></g></g><g id="Layer_1"/></svg>