<?xml version="1.0" ?><!DOCTYPE svg  PUBLIC '-//W3C//DTD SVG 1.1//EN'  'http://www.w3.org/Graphics/SVG/1.1/DTD/svg11.dtd'><svg height="60px" id="Layer_1" style="enable-background:new 0 0 60 60;" version="1.1" viewBox="0 0 60 60" width="60px" xml:space="preserve" xmlns="http://www.w3.org/2000/svg" xmlns:xlink="http://www.w3.org/1999/xlink"><style type="text/css">
<![CDATA[
	.st0{fill:none;stroke:#231F20;stroke-width:1.5;stroke-linecap:round;stroke-linejoin:round;stroke-miterlimit:10;}
]]>
</style><g><path class="st0" d="M43.211,20.334c-5.349,0-9.688-4.33-9.688-9.666   C33.522,5.329,37.862,1,43.211,1c5.35,0,9.688,4.329,9.688,9.668C52.898,16.004,48.561,20.334,43.211,20.334L43.211,20.334z    M34.367,25.536c-1.548-3.283-4.893-5.554-8.771-5.554c-5.352,0-9.688,4.326-9.688,9.666c0,0.218,0.016,0.431,0.031,0.645h-0.031   v16.755h14.069 M25.597,18.691c3.922,0,7.103-3.172,7.103-7.087c0-3.913-3.181-7.088-7.103-7.088c-3.923,0-7.104,3.175-7.104,7.088   C18.492,15.52,21.674,18.691,25.597,18.691L25.597,18.691z M56.422,35.274c0-7.282-5.913-13.184-13.211-13.184   c-7.297,0-13.21,5.901-13.21,13.184C30,35.569,30,59,30,59h26.422C56.422,59,56.422,35.569,56.422,35.274L56.422,35.274z    M18.475,23.066c-1.342-2.466-3.96-4.14-6.97-4.14l0,0c-4.381,0-7.927,3.54-7.927,7.909c0,0.177,0.014,0.352,0.027,0.528H3.578   v13.711h12.26 M11.505,17.874c3.208,0,5.812-2.598,5.812-5.801c0-3.202-2.603-5.8-5.812-5.8c-3.209,0-5.814,2.598-5.814,5.8   C5.69,15.276,8.295,17.874,11.505,17.874L11.505,17.874z" id="Myspace__x28_alt_x29__3_"/></g></svg>